<?xml version="1.0" standalone="no"?>
<!DOCTYPE svg PUBLIC "-//W3C//DTD SVG 20010904//EN"
 "http://www.w3.org/TR/2001/REC-SVG-20010904/DTD/svg10.dtd">
<svg version="1.0" xmlns="http://www.w3.org/2000/svg"
 width="512.000000pt" height="512.000000pt" viewBox="0 0 512.000000 512.000000"
 preserveAspectRatio="xMidYMid meet">
<metadata>
Created by potrace 1.11, written by Peter Selinger 2001-2013
</metadata>
<g transform="translate(0.000000,512.000000) scale(0.100000,-0.100000)"
fill="#000000" stroke="none">
<path d="M4599 4634 c-91 -16 -155 -40 -268 -100 -85 -45 -208 -130 -247 -170
-15 -15 -51 -27 -130 -43 -115 -23 -196 -45 -330 -88 l-81 -26 -129 68 c-121
63 -213 98 -294 111 -19 3 -51 9 -72 13 -41 9 -320 7 -358 -2 -14 -4 -36 -9
-50 -11 -93 -15 -207 -57 -294 -108 -82 -49 -196 -158 -255 -246 l-43 -63 -31
23 c-18 14 -50 37 -72 54 -22 16 -42 31 -45 35 -12 14 -223 140 -295 177 -88
44 -248 113 -316 136 -74 24 -188 57 -217 62 -15 2 -49 8 -77 13 -27 5 -72 12
-100 16 -55 7 -345 8 -385 1 -14 -3 -57 -9 -97 -15 -94 -14 -155 -41 -184 -83
-51 -71 -19 -266 62 -387 l38 -56 -62 -18 c-124 -36 -184 -76 -205 -135 -12
-36 -12 -139 0 -197 12 -54 48 -122 83 -155 l25 -23 -35 -34 c-61 -59 -94
-147 -96 -253 -2 -74 26 -102 121 -124 349 -81 400 -98 570 -187 155 -83 248
-149 345 -244 118 -117 146 -155 140 -185 -8 -35 -89 -173 -144 -245 -91 -121
-258 -276 -376 -350 -33 -21 -84 -54 -113 -73 -75 -49 -182 -90 -276 -107
-127 -21 -146 -65 -77 -173 65 -99 126 -154 231 -204 106 -50 216 -79 316 -83
30 -1 51 -10 79 -33 21 -17 68 -46 104 -64 62 -30 73 -32 172 -33 103 0 106
-1 98 -20 -4 -11 -24 -56 -43 -100 l-35 -79 67 -40 c95 -55 243 -128 337 -164
84 -32 115 -44 128 -47 4 -2 8 -3 10 -5 1 -1 9 -3 17 -5 8 -2 48 -13 88 -24
40 -12 89 -24 110 -27 20 -3 40 -8 43 -9 7 -5 119 -24 194 -33 33 -4 143 -7
245 -7 205 0 289 7 445 38 l60 12 90 180 c102 202 119 240 168 375 28 76 87
257 92 280 19 99 22 103 108 148 83 43 137 87 192 154 29 36 32 37 115 43 47
3 101 8 120 10 52 6 196 18 345 30 113 8 211 28 334 67 82 26 278 103 290 114
2 2 -4 10 -13 19 -9 9 -29 33 -44 53 -15 20 -35 46 -44 57 -9 11 -78 99 -154
195 -76 96 -157 199 -181 229 -24 29 -43 57 -43 61 0 11 60 38 100 45 86 14
195 61 280 118 125 86 235 248 286 422 33 115 1 230 -75 266 l-31 15 36 35
c84 80 156 222 160 313 2 51 -1 65 -24 97 -15 21 -42 45 -61 54 l-34 16 40 42
c65 68 102 126 124 196 37 121 14 236 -74 367 -48 72 -91 108 -148 124 -47 14
-159 11 -250 -6z"/>
</g>
</svg>
